<svg xmlns="http://www.w3.org/2000/svg" viewBox="0 0 512 512">
  <defs>
    <linearGradient id="grad" x1="0%" y1="0%" x2="100%" y2="100%">
      <stop offset="0%" style="stop-color:#00C853;stop-opacity:1" />
      <stop offset="100%" style="stop-color:#00A344;stop-opacity:1" />
    </linearGradient>
  </defs>
  <rect width="512" height="512" rx="108" fill="url(#grad)"/>
  <path d="M256 85.3c-94.3 0-170.7 76.4-170.7 170.7s76.4 170.7 170.7 170.7S426.7 350.3 426.7 256 350.3 85.3 256 85.3zm18 205.8V312h-34.1v-24.7c-21.9-4.6-40.4-18.7-41.9-43.5h25.1c1.3 13.4 10.5 23.9 33.9 23.9 25.1 0 30.7-12.5 30.7-20.3 0-10.6-5.6-20.6-34.1-27.4-31.7-7.7-53.5-20.7-53.5-47 0-22 17.8-36.3 39.8-41.1V112h34.1v24.9c23.8 5.8 35.7 23.8 36.5 43.4h-25.1c-.6-14.2-8.2-23.9-28.4-23.9-19.2 0-30.7 8.7-30.7 21 0 10.7 8.3 17.8 34.1 24.5s53.5 17.8 53.5 50c-.1 23.4-17.7 36.2-39.9 40.5z" fill="white"/>
</svg>
