<svg xmlns="http://www.w3.org/2000/svg" viewBox="0 0 192 192">
  <defs>
    <linearGradient id="grad" x1="0%" y1="0%" x2="100%" y2="100%">
      <stop offset="0%" style="stop-color:#00C853;stop-opacity:1" />
      <stop offset="100%" style="stop-color:#00A344;stop-opacity:1" />
    </linearGradient>
  </defs>
  <rect width="192" height="192" rx="40" fill="url(#grad)"/>
  <path d="M96 32C61.2 32 32 61.2 32 96s29.2 64 64 64 64-29.2 64-64S130.8 32 96 32zm6.76 77.18V118h-12.8v-9.28c-8.2-1.73-15.17-7.01-15.7-16.32h9.4c.48 5.04 3.94 8.98 12.72 8.98 9.4 0 11.52-4.7 11.52-7.63 0-3.98-2.11-7.73-12.8-10.27-11.9-2.88-20.06-7.78-20.06-17.62 0-8.26 6.67-13.63 14.92-15.41V42h12.8v9.36c8.93 2.16 13.39 8.93 13.68 16.27h-9.4c-.24-5.33-3.07-8.98-10.66-8.98-7.2 0-11.52 3.26-11.52 7.87 0 4.03 3.12 6.67 12.8 9.17s20.06 6.67 20.06 18.77c-.05 8.78-6.62 13.59-14.96 15.18z" fill="white"/>
</svg>
